# xmcd
#
# Track frame offsets: 
#        180
#        19000
#        37037
#        63107
#        86356
#        107227
#        121018
#        140349
#
# Disc length: 2158 seconds
#
# Revision: 0
# Processed by: cddbd v1.5.2PL0 Copyright (c) Steve Scherf et al.
# Submitted via: ExactAudioCopy v0.99pb3
#
DISCID=5d086c08
DTITLE=Whop Frazier - Doing It On My Own
DYEAR=1995
DGENRE=Blues
TTITLE0=Funk The Blues
TTITLE1=Hush Hush
TTITLE2=Wish I Never Loved You At All
TTITLE3=Whop's Jam
TTITLE4=Next Time you See Me
TTITLE5=Put The Shoe On The Other Foot
TTITLE6=Pride and Joy
TTITLE7=Shake A Hand
EXTD=
EXTT0=
EXTT1=
EXTT2=
EXTT3=
EXTT4=
EXTT5=
EXTT6=
EXTT7=
PLAYORDER=
